<?xml version="1.0" encoding="UTF-8"?>
<svg xmlns="http://www.w3.org/2000/svg" xmlns:xlink="http://www.w3.org/1999/xlink" viewBox="0 0 48 48" width="48px" height="48px">
<g id="surface72749362">
<path style=" stroke:none;fill-rule:nonzero;fill:rgb(60.784316%,34.901962%,71.372551%);fill-opacity:1;" d="M 10.46875 2 C 4.445312 2.089844 1.957031 8.96875 1.042969 12.742188 C 0.421875 13.289062 0.0234375 14.082031 0.0234375 14.976562 C 0.0234375 16.625 1.359375 17.964844 3.007812 17.964844 C 4.660156 17.964844 5.992188 16.71875 5.992188 15.1875 L 5.992188 14.976562 C 5.992188 14.804688 5.972656 14.644531 5.945312 14.484375 C 6.226562 14.304688 6.496094 14.1875 6.753906 14.144531 C 7.238281 14.0625 7.691406 14.238281 8.171875 14.539062 C 5.519531 23.015625 6.800781 29.617188 11.980469 34.191406 L 11.980469 34.484375 C 11.980469 35.648438 12.480469 36.757812 13.371094 37.550781 L 21.191406 44.011719 C 22.003906 44.683594 23 45.019531 23.992188 45.019531 C 24.984375 45.019531 25.980469 44.683594 26.789062 44.011719 L 34.640625 37.527344 C 35.503906 36.757812 36 35.644531 36 34.480469 L 36 34.113281 C 41.179688 29.539062 42.460938 22.933594 39.804688 14.464844 C 40.289062 14.164062 40.742188 13.988281 41.226562 14.066406 C 41.484375 14.109375 41.757812 14.230469 42.042969 14.410156 C 42.007812 14.59375 41.984375 14.78125 41.984375 14.976562 C 41.984375 16.625 43.320312 17.964844 44.96875 17.964844 C 46.621094 17.964844 47.957031 16.71875 47.957031 15.1875 L 47.957031 14.976562 C 47.960938 14.101562 47.578125 13.324219 46.984375 12.78125 C 46.128906 9.019531 43.738281 2.152344 37.683594 2.0625 C 35.046875 2.011719 33.144531 3.078125 31.839844 4.140625 C 30.144531 3.257812 28 2.765625 25.488281 2.621094 L 25.488281 2.589844 L 24.023438 2.558594 L 22.480469 2.558594 L 22.480469 2.589844 C 20.105469 2.71875 17.960938 3.257812 16.160156 4.203125 C 14.949219 3.144531 13.121094 1.925781 10.46875 2 Z M 37.640625 5.0625 C 40.972656 5.113281 42.761719 8.945312 43.644531 11.867188 C 43.015625 11.46875 42.375 11.21875 41.714844 11.109375 C 39.6875 10.769531 38.125 11.9375 37.292969 12.566406 L 36.261719 13.332031 L 36.621094 14.371094 C 38.859375 20.847656 38.660156 25.882812 36.003906 29.660156 L 36.011719 17.121094 C 36.011719 16.558594 35.777344 16.023438 35.375 15.640625 C 34.957031 15.246094 34.398438 15.054688 33.839844 15.109375 L 25.554688 15.898438 L 25.5 5.605469 C 27.910156 5.757812 29.820312 6.304688 31.179688 7.230469 L 32.1875 7.914062 L 33.066406 7.066406 C 34.046875 6.113281 35.453125 4.976562 37.640625 5.0625 Z M 13.957031 17.09375 L 23.886719 18.066406 L 34.011719 17.121094 L 34.003906 31.875 C 33.972656 31.902344 33.949219 31.929688 33.917969 31.957031 L 34.003906 32.058594 L 34.003906 34.480469 C 34 35.078125 33.75 35.644531 33.339844 36.007812 L 25.515625 42.46875 C 24.632812 43.203125 23.351562 43.199219 22.464844 42.46875 L 14.671875 36.03125 C 14.234375 35.640625 13.984375 35.078125 13.984375 34.480469 L 13.980469 32.132812 L 14.066406 32.03125 C 14.035156 32.007812 14.011719 31.976562 13.980469 31.949219 Z M 17.332031 19 C 15.058594 19 14 23.890625 14 23.890625 C 14 23.890625 15.109375 28 16.78125 28 C 20.667969 28 24 25.519531 24 25.519531 C 24 25.519531 27.332031 28 31.222656 28 C 32.890625 28 34 23.890625 34 23.890625 C 34 23.890625 32.941406 19 30.671875 19 C 29 19 24 23.789062 24 23.789062 C 24 23.789062 19 19 17.332031 19 Z M 17.25 22 C 17.25 22 17.886719 22.066406 18.695312 22.238281 C 18.277344 22.503906 18 22.96875 18 23.5 C 18 24.328125 18.671875 25 19.5 25 C 20.328125 25 21 24.328125 21 23.5 C 21 23.304688 20.960938 23.121094 20.890625 22.949219 C 21.53125 23.273438 22 23.703125 22 24.25 C 22 25.5 19.328125 26 18 26 C 16.671875 26 16 24 16 24 C 16 24 16 23 17.25 22 Z M 30.75 22 C 32 23 32 24 32 24 C 32 24 31.328125 26 30 26 C 28.671875 26 26 25.5 26 24.25 C 26 23.703125 26.46875 23.273438 27.109375 22.949219 C 27.039062 23.121094 27 23.304688 27 23.5 C 27 24.328125 27.671875 25 28.5 25 C 29.328125 25 30 24.328125 30 23.5 C 30 22.96875 29.722656 22.503906 29.304688 22.238281 C 30.113281 22.066406 30.75 22 30.75 22 Z M 17 31 C 17 31 19.335938 36.085938 22.421875 37.703125 C 22.421875 37.703125 22.871094 38 24.011719 38 C 25.148438 38 25.597656 37.703125 25.597656 37.703125 C 28.683594 36.085938 31 31 31 31 C 29 32 27.324219 32 26.203125 32 C 25.078125 32 24.042969 32.75 24.042969 32.75 C 24.042969 32.75 23.003906 32 21.882812 32 C 20.757812 32 19 32 17 31 Z M 19 32.75 C 19 32.75 22 34 24 34 C 25.972656 34.328125 27.796875 33.238281 29 32.75 C 29 32.75 27.652344 34.359375 26.613281 35.066406 C 26.097656 35.414062 25.507812 35.726562 24.875 35.886719 C 24.59375 35.960938 24.300781 36 24.003906 36 C 23.707031 36 23.414062 35.960938 23.136719 35.886719 C 22.5 35.726562 21.910156 35.414062 21.398438 35.066406 C 20.351562 34.359375 19 32.75 19 32.75 Z M 19 32.75 "/>
</g>
</svg>
