<?xml version="1.0" encoding="UTF-8"?>
<svg xmlns="http://www.w3.org/2000/svg" xmlns:xlink="http://www.w3.org/1999/xlink" viewBox="0 0 480 480" width="480px" height="480px">
<g id="surface73790141">
<path style=" stroke:none;fill-rule:nonzero;fill:rgb(90.588236%,29.803923%,23.529412%);fill-opacity:1;" d="M 460 120 C 460 138.800781 457.5 154.101562 453.800781 166.601562 C 445 185 430.140625 181.761719 425 160 C 423.28125 152.699219 419.101562 145.898438 417.601562 140.101562 C 417.5 140 417.5 140 417.5 140 C 408.800781 107.199219 370 100 370 100 L 340 70 C 340 70 360 50 390 50 C 430 50 460 70 460 120 Z M 150 70 L 120 100 C 90.601562 107.898438 63.5 131.398438 60.5 160.5 C 60.199219 163.601562 60 166.800781 60 170 C 60 170 30 175 23.699219 175.300781 L 23.699219 175.199219 C 21.398438 164.800781 20 153.101562 20 140 C 20 70 57.601562 50 90 50 C 140 50 150 70 150 70 Z M 150 70 "/>
<path style=" stroke:none;fill-rule:nonzero;fill:rgb(95.686275%,26.274511%,21.176471%);fill-opacity:1;" d="M 150 70 C 155.179688 70 160 75 160 80 C 160 90 140 110 130 110 C 125.058594 110 120 105.179688 120 100 C 120 90 139.390625 70 150 70 Z M 150 70 "/>
<path style=" stroke:none;fill-rule:nonzero;fill:rgb(14.901961%,77.64706%,85.490197%);fill-opacity:1;" d="M 340 70 C 334.820312 70 330 75 330 80 C 330 90 350 110 360 110 C 364.941406 110 370 105.179688 370 100 C 370 90 350.609375 70 340 70 Z M 453.800781 166.601562 C 442.5 203.800781 420 215 420 215 C 420 215 420 210 420 205 C 420 205 410.101562 214.898438 400.101562 219.898438 C 401.199219 217.800781 420 184.199219 420 160 C 420 152.5 419.101562 145.898438 417.601562 140.101562 C 419 141.300781 430 151.199219 430 170 C 436.199219 163.300781 435 140 435 140 C 445 147.800781 445 175 445 175 C 450 170 450 160 450 160 C 451.300781 161.300781 452.5 163.699219 453.800781 166.601562 Z M 453.800781 166.601562 "/>
<path style=" stroke:none;fill-rule:nonzero;fill:rgb(95.686275%,26.274511%,21.176471%);fill-opacity:1;" d="M 59.800781 230 L 60 240 C 60 240 33.601562 220.199219 23.699219 175.300781 L 23.699219 175.199219 C 24.300781 165.5 30 155.199219 30 155.199219 C 30 155.199219 30 165 35 170 C 34.699219 142 50 130 50 130 C 48.101562 137.5 45 155 55 170 C 55 165 60.5 160.101562 60.5 160.101562 L 60.5 160.5 C 60.199219 163.601562 60 166.800781 60 170 C 60 220 80 250 80 250 C 67.5 240.300781 59.800781 230 59.800781 230 Z M 59.800781 230 "/>
<path style=" stroke:none;fill-rule:nonzero;fill:rgb(90.588236%,29.803923%,23.529412%);fill-opacity:1;" d="M 239.429688 75 C 239.429688 75 255 60 280 60 C 305 60 329.878906 74.578125 340 85 C 350.121094 95.421875 380 120 380 170 C 380 190 379.859375 202.921875 375 215 C 370.140625 227.078125 358.5 247.078125 350 255 C 350 255 360 225.648438 360 205 C 360 185 360 155 335 135 C 317.308594 120.851562 305 120 290 120 C 280 120 246.878906 132.078125 240 150 C 240 150 208.828125 130 190 130 C 160 130 130 150 130 215 C 130 235 135 250 135 250 C 135 250 110 218.988281 110 185 C 110 115 151.910156 76.289062 175.378906 68.820312 C 198.851562 61.351562 230.121094 66.25 239.429688 75 Z M 239.429688 75 "/>
<path style=" stroke:none;fill-rule:nonzero;fill:rgb(90.588236%,29.803923%,23.529412%);fill-opacity:1;" d="M 335.300781 278.199219 C 337 275.300781 350 240.5 350 210 C 350 160 325 130 295 130 C 270 130 240 160 240 160 C 236.199219 155.601562 205 140 190 140 C 160 140 140 165 140 210 C 140 250 152 255.398438 154.5 259.800781 C 157 264.101562 150 280 150 290 C 150 305 160 310 170 310 C 178.5 310 179.699219 305 184.699219 305 C 189.699219 305 197.601562 315 195.800781 318.699219 C 193.898438 322.5 193.300781 332.300781 193.300781 332.300781 L 200.601562 336 C 200.601562 336 201.601562 335.800781 202 332.300781 C 202.300781 329.898438 204.300781 329.300781 204.300781 329.300781 C 203.101562 330.898438 203.101562 342.699219 203.101562 342.699219 C 207.398438 345.800781 212.601562 346 212.601562 346 C 215.398438 342.699219 214.601562 333.398438 218.300781 327.5 L 220.699219 328.101562 C 219.199219 331.601562 217.199219 346.898438 217.199219 346.898438 C 219.300781 350.601562 230.800781 351.5 230.800781 351.5 C 232.601562 349 233.5 342.101562 233.5 338.5 C 233.5 335 233.898438 325 233.898438 325 L 238.101562 325.101562 C 238.101562 325.101562 239.398438 332.199219 239 337.898438 C 238.398438 345.199219 242.300781 354.898438 242.300781 354.898438 C 251.5 355.398438 254.601562 351.800781 254.601562 351.800781 C 254.601562 351.800781 252.5 331.5 252.5 324 L 256.5 323.699219 C 254.898438 333.699219 259.398438 350 259.398438 350 C 267.300781 349.601562 275 345 275 345 C 275 345 271.800781 336.199219 270.800781 331.601562 C 269.199219 324.101562 272.101562 320.101562 272.101562 320.101562 C 272.898438 325.5 277.898438 338.300781 277.898438 338.300781 C 283.300781 338.800781 288.101562 334.398438 288.101562 334.398438 L 286.199219 324.800781 L 289.898438 323.699219 C 290 310 295 305 295 305 C 317.5 305 330 310 330 310 L 340 295 C 340 295 333.601562 281.199219 335.300781 278.199219 Z M 213.699219 242.800781 C 207.699219 249.101562 202.601562 260 202.601562 260 C 198.398438 253.199219 186.300781 255.898438 168.101562 239.5 C 163.300781 235.101562 160.601562 230.300781 160 221.699219 C 159.398438 213.101562 164.101562 208.398438 170.398438 205.898438 C 174.699219 204.101562 182.898438 205.199219 187.101562 209.898438 C 191.398438 214.601562 190.398438 217.601562 191.601562 220.398438 C 192.800781 223.199219 194.101562 222.5 195.398438 226.199219 C 196.601562 229.898438 197.5 232.699219 199.699219 232.699219 C 201.699219 232.699219 200.898438 226.199219 200 224 C 199.199219 221.699219 196.398438 221 194.699219 216.199219 C 193 211.300781 195.699219 206.300781 200.101562 203.199219 C 204.398438 200.199219 209.5 200 216.5 200 C 224.898438 200 230 207.601562 230 215.601562 C 230 225.601562 219.699219 236.398438 213.699219 242.800781 Z M 259 300 C 255.300781 296.898438 249 288.199219 246.398438 285.398438 C 243.101562 291.800781 230.101562 300 230.101562 300 C 228.898438 280.101562 244 260 244 260 C 244 260 247.699219 265.898438 255.300781 276.101562 C 262.898438 286.199219 259 300 259 300 Z M 304.601562 244 C 304.601562 244 296 236.101562 295.601562 234.5 C 295.199219 232.800781 294 228.898438 291.699219 227.800781 C 289.398438 226.699219 287.800781 227.800781 287.800781 228.800781 C 287.800781 229.800781 289.601562 231.101562 289.601562 232.199219 C 289.601562 233.300781 290.699219 237.300781 292 238.699219 C 293.300781 240.199219 300.800781 248.199219 300.800781 248.199219 C 300.800781 248.199219 294.101562 257.800781 288.601562 260 C 275 244.5 267.398438 236.601562 259.898438 220.601562 C 274 202.300781 291.601562 190 291.601562 190 C 291.601562 190 300 202 304.398438 207.898438 C 314.800781 221.398438 318.898438 223.601562 320 226.199219 Z M 304.601562 244 "/>
<path style=" stroke:none;fill-rule:nonzero;fill:rgb(90.588236%,29.803923%,23.529412%);fill-opacity:1;" d="M 191.179688 312.238281 C 194.808594 313.921875 190.800781 325.789062 192.179688 334.878906 C 193.558594 343.96875 198.828125 344.53125 199.660156 348.011719 C 200.488281 351.488281 199.96875 360.058594 196.910156 360 C 193.671875 359.929688 180.550781 343.910156 180.550781 340.039062 C 180.550781 336.171875 178.949219 317.378906 181.28125 314.238281 C 183.429688 311.308594 187.449219 310.511719 191.179688 312.238281 Z M 191.179688 312.238281 "/>
<path style=" stroke:none;fill-rule:nonzero;fill:rgb(90.588236%,29.803923%,23.529412%);fill-opacity:1;" d="M 200.921875 352.101562 C 200.921875 352.101562 198.851562 363.011719 200.921875 371.660156 C 202.988281 380.308594 209.808594 388.578125 211.671875 389.339844 C 213.53125 390.089844 218.699219 390.28125 222 389.339844 C 225.300781 388.398438 237.5 388.019531 241.21875 388.398438 C 244.941406 388.78125 255.53125 389.980469 259.878906 390.011719 C 264.351562 390.039062 268.710938 389.910156 271.191406 384.449219 C 273.671875 379 278.839844 372.601562 279.460938 367.53125 C 280.078125 362.460938 280.289062 351.550781 279.460938 350.980469 C 278.628906 350.421875 273.039062 350.039062 273.039062 350.039062 C 271.109375 353.398438 269.378906 358.761719 269.378906 358.761719 C 269.378906 358.761719 269.039062 356.820312 266.960938 354.988281 C 264.839844 354.980469 257.949219 354.988281 257.949219 354.988281 C 256.601562 355.910156 256.328125 358.019531 256.109375 361.140625 C 255.898438 364.039062 255.179688 366.878906 254.738281 367.808594 L 254.148438 367.78125 C 253.941406 366.089844 255.070312 359.640625 253.421875 358.128906 C 251.769531 356.628906 244.011719 356.808594 244.011719 356.808594 C 244.011719 356.808594 242.621094 362.539062 241.898438 367.238281 C 241.898438 367.238281 239.691406 357.378906 237.929688 357.378906 C 233.589844 357.378906 229.609375 357.429688 229.609375 357.429688 C 229.609375 357.429688 229.398438 358.78125 229.199219 362.71875 C 228.988281 366.671875 228.078125 369.070312 228.078125 369.070312 C 227.570312 369.070312 226.820312 369.070312 226.820312 369.070312 C 225.898438 367.539062 225.398438 363.511719 224.511719 361.320312 C 223.269531 358.308594 221.410156 356.089844 220.628906 355.910156 L 218.558594 355.890625 C 216.589844 357.011719 215 360.328125 215 366.398438 L 212.929688 366.210938 C 212.929688 366.210938 213.761719 353.988281 211.480469 352.859375 C 209.191406 351.71875 200.921875 352.101562 200.921875 352.101562 Z M 243.640625 408.28125 C 243.640625 408.28125 242.320312 405.039062 245.390625 403.421875 C 248.460938 401.800781 251.308594 398.558594 249.339844 396.699219 C 247.371094 394.839844 233.769531 393.921875 230.921875 396.699219 C 228.070312 399.480469 232.671875 401.101562 233.328125 402.71875 C 233.988281 404.339844 235.519531 408.738281 235.519531 411.988281 C 235.519531 415.238281 240 415 240 415 C 240 415 243.859375 413.371094 243.640625 408.28125 Z M 243.640625 408.28125 "/>
<path style=" stroke:none;fill-rule:nonzero;fill:rgb(90.588236%,29.803923%,23.529412%);fill-opacity:1;" d="M 240 470 C 240 470 244.269531 462.960938 247.449219 461 C 250.75 458.96875 268.871094 446.210938 272.109375 440.738281 C 275.089844 435.71875 276.730469 421.160156 270.578125 416.160156 C 264.429688 411.160156 260.488281 410 255.53125 410 C 249.5 410 244.480469 416.398438 243.289062 417.800781 C 242.101562 419.199219 239.121094 421.601562 236.339844 419.199219 C 233.558594 416.800781 229.398438 410 222.839844 410 C 210 410 205 420 205 430 C 205 440 207.261719 444 215 450 C 222.738281 456 230.148438 455 240 470 Z M 296.949219 311.570312 C 296.949219 311.570312 297.890625 328.410156 292.179688 334.46875 C 286.46875 340.53125 279.128906 345.839844 280.078125 352.601562 C 281.230469 360.738281 281.769531 363.441406 286.199219 363.628906 C 290.640625 363.820312 292.179688 359.191406 293.171875 356.429688 C 295.058594 351.179688 307.480469 340.601562 308.738281 335.011719 C 310.011719 329.421875 310.519531 313.511719 309.25 312.191406 C 307.980469 310.859375 307.109375 308.488281 302.988281 308.488281 C 298.890625 308.488281 296.558594 308.960938 296.949219 311.570312 Z M 296.949219 311.570312 "/>
<path style=" stroke:none;fill-rule:nonzero;fill:rgb(95.686275%,26.274511%,21.176471%);fill-opacity:1;" d="M 305.460938 416.730469 C 305.460938 416.730469 305.460938 419.871094 307.21875 424.539062 C 308.980469 429.199219 311.390625 428.550781 312.710938 426.921875 C 314.03125 425.289062 316.441406 422.429688 316.441406 422.429688 C 316.441406 422.429688 319.070312 419.21875 314.351562 417.921875 C 309.628906 416.628906 305.460938 416.730469 305.460938 416.730469 Z M 305.460938 416.730469 "/>
<path style=" stroke:none;fill-rule:nonzero;fill:rgb(95.686275%,26.274511%,21.176471%);fill-opacity:1;" d="M 301.289062 397.660156 C 301.289062 397.660156 300.078125 386.820312 289.871094 390.941406 C 279.660156 395.058594 280.429688 401.351562 280.648438 403.078125 C 280.871094 404.808594 281.859375 407.800781 287.789062 410.101562 C 287.789062 410.101562 278.988281 410.5 280.101562 417.28125 C 281.210938 424.058594 289.761719 428.660156 291.851562 429.199219 C 293.941406 429.738281 299.429688 431.371094 301.289062 427.46875 C 303.160156 423.570312 303.671875 419.558594 302.761719 416.519531 C 301.839844 413.480469 303.269531 413.160156 307.109375 413.921875 C 310.949219 414.679688 316.988281 414.570312 318.96875 410.558594 C 320.949219 406.550781 320.289062 399.5 315.351562 395.171875 C 310.410156 390.828125 305.140625 393.441406 304.261719 394.738281 C 303.371094 396.03125 301.289062 397.660156 301.289062 397.660156 Z M 178.710938 397.660156 C 178.710938 397.660156 179.921875 386.820312 190.128906 390.941406 C 200.339844 395.058594 199.570312 401.351562 199.351562 403.078125 C 199.128906 404.808594 198.140625 407.800781 192.210938 410.101562 C 192.210938 410.101562 201.011719 410.5 199.898438 417.28125 C 198.789062 424.058594 190.238281 428.660156 188.148438 429.199219 C 186.058594 429.738281 180.570312 431.371094 178.710938 427.46875 C 176.839844 423.570312 176.328125 419.558594 177.238281 416.519531 C 178.160156 413.480469 176.730469 413.160156 172.890625 413.921875 C 169.050781 414.679688 163.011719 414.570312 161.03125 410.558594 C 159.050781 406.550781 159.710938 399.5 164.648438 395.171875 C 169.589844 390.828125 174.859375 393.441406 175.738281 394.738281 C 176.628906 396.03125 178.710938 397.660156 178.710938 397.660156 Z M 178.710938 397.660156 "/>
<path style=" stroke:none;fill-rule:nonzero;fill:rgb(95.686275%,26.274511%,21.176471%);fill-opacity:1;" d="M 174.539062 416.730469 C 174.539062 416.730469 174.539062 419.871094 172.78125 424.539062 C 171.019531 429.199219 168.609375 428.550781 167.289062 426.921875 C 165.96875 425.289062 163.558594 422.429688 163.558594 422.429688 C 163.558594 422.429688 160.929688 419.21875 165.648438 417.921875 C 170.371094 416.628906 174.539062 416.730469 174.539062 416.730469 Z M 174.539062 416.730469 "/>
<path style=" stroke:none;fill-rule:nonzero;fill:rgb(95.686275%,26.274511%,21.176471%);fill-opacity:1;" d="M 241.738281 342.238281 C 241.738281 342.238281 242.351562 348.859375 244.039062 352.601562 C 244.039062 352.601562 250.121094 352.601562 252.28125 350.660156 C 252.28125 350.660156 251 342.53125 251.398438 340.871094 C 251.390625 340.871094 245.171875 340.011719 241.738281 342.238281 Z M 258.828125 340.488281 C 258.828125 340.488281 259.820312 347.078125 260.398438 348.320312 C 260.398438 348.320312 268.679688 346.871094 272.480469 344.410156 C 272.480469 344.410156 269.910156 339.101562 269.910156 337.78125 C 269.898438 337.769531 262.960938 337.21875 258.828125 340.488281 Z M 277.570312 332.128906 L 278.679688 336.449219 C 278.679688 336.449219 281.96875 337.300781 286.011719 333.691406 L 284.679688 329.230469 C 284.691406 329.21875 279.378906 329.910156 277.570312 332.128906 Z M 231.101562 341.359375 C 231.101562 341.359375 231.210938 346.578125 229.589844 349.570312 C 229.589844 349.570312 221.191406 348.539062 219.261719 346.558594 C 219.261719 346.558594 219.480469 341.679688 220.121094 339.851562 C 220.121094 339.851562 227.109375 338.828125 231.101562 341.359375 Z M 213.078125 338.230469 C 213.078125 338.230469 212.550781 342.308594 211.800781 344.320312 C 211.800781 344.320312 205.050781 343.039062 204.328125 341.910156 C 204.328125 341.910156 204.328125 337.558594 204.96875 336.621094 C 204.96875 336.628906 210.199219 335.929688 213.078125 338.230469 Z M 200.820312 329.921875 C 200.820312 329.921875 200.390625 332.878906 199.769531 333.910156 L 195.019531 331.808594 C 195.019531 331.808594 194.738281 329.480469 195.308594 328.21875 C 195.308594 328.230469 198.351562 328.230469 200.820312 329.921875 Z M 231.648438 359.171875 C 231.648438 359.171875 231.019531 366.28125 230.550781 367.929688 C 230.550781 367.929688 233.789062 368.941406 239.199219 366.628906 C 239.199219 366.628906 237.960938 359.871094 237.140625 359.121094 Z M 245.371094 358.769531 C 245.371094 358.769531 244.398438 364.539062 244.488281 366.5 C 244.488281 366.5 247.460938 367.230469 252.160156 366.128906 C 252.160156 366.128906 252.539062 360.660156 251.910156 359.640625 C 251.910156 359.640625 249.921875 358.21875 245.371094 358.769531 Z M 258.75 357.21875 C 258.75 357.21875 257.511719 359.988281 257.929688 365.460938 C 257.929688 365.460938 264.589844 365.480469 267.558594 362.5 C 268.648438 361.410156 266.730469 356.871094 266.730469 356.871094 Z M 274.238281 351.820312 C 274.238281 351.820312 271.46875 358.441406 271.46875 360.738281 C 271.46875 360.738281 277.390625 359.640625 278.710938 357.890625 C 278.710938 357.890625 279.019531 353.609375 278.710938 352.589844 C 278.710938 352.589844 276.671875 351.511719 274.238281 351.820312 Z M 219.410156 357.21875 C 219.410156 357.21875 216.558594 361.5 216.949219 366.441406 C 216.949219 366.441406 220.011719 367.398438 224.03125 367.789062 C 224.03125 367.789062 223.300781 360.671875 220.328125 357.21875 Z M 202.46875 354 C 202.46875 354 209.21875 354.351562 209.921875 354.980469 C 210.628906 355.609375 211.328125 361.558594 211.019531 364.039062 C 211.019531 364.039062 203.519531 364.199219 201.851562 361.921875 Z M 202.46875 354 "/>
</g>
</svg>
